<svg width="220" height="58" viewBox="0 0 220 58" fill="none" xmlns="http://www.w3.org/2000/svg">
<mask id="path-1-outside-1_994_2" maskUnits="userSpaceOnUse" x="0" y="0" width="220" height="58" fill="black">
<rect fill="white" width="220" height="58"/>
<path d="M6.39844 11.9648C7.97396 11.444 9.45182 10.9622 10.832 10.5195C12.2253 10.0768 13.6901 9.66016 15.2266 9.26953C16.763 8.86589 18.2344 8.54688 19.6406 8.3125C20.7214 8.13021 21.8281 8.03906 22.9609 8.03906C24.849 8.03906 26.0859 8.09115 26.6719 8.19531C27.5573 8.36458 28.3906 8.63802 29.1719 9.01562C29.9661 9.39323 30.6693 9.90104 31.2812 10.5391C31.9062 11.1641 32.4141 11.9062 32.8047 12.7656C32.9609 13.1172 33.0391 13.4883 33.0391 13.8789C33.0391 15.3372 32.2383 17.1341 30.6367 19.2695C29.0482 21.4049 27.4466 23.2669 25.832 24.8555C24.2305 26.444 23.0326 27.5833 22.2383 28.2734L25.7539 40.5977L20.6367 44.2891L11.6719 18.6836C11.6458 18.6836 11.5221 18.8073 11.3008 19.0547C11.0794 19.3021 10.7865 19.6276 10.4219 20.0312C10.0703 20.4219 9.84896 20.6628 9.75781 20.7539C9.71875 20.7539 9.58854 20.474 9.36719 19.9141C9.15885 19.3542 8.8724 18.5794 8.50781 17.5898C8.15625 16.5872 7.75911 15.4805 7.31641 14.2695C6.86068 13.0456 6.55469 12.2773 6.39844 11.9648ZM19.0352 17.3945L20.6367 23.1562C21.444 22.3359 22.4466 21.2161 23.6445 19.7969C24.8424 18.3776 25.4414 17.349 25.4414 16.7109C25.4414 16.4635 25.3372 16.3203 25.1289 16.2812C24.543 16.151 23.9635 16.0859 23.3906 16.0859C21.6719 16.0859 20.2201 16.5221 19.0352 17.3945ZM51.707 21.8477C52.6315 22.3424 53.3802 23.013 53.9531 23.8594C54.5391 24.6927 54.9622 25.6367 55.2227 26.6914C55.4961 27.7331 55.6328 28.8203 55.6328 29.9531C55.6328 30.8906 55.5547 31.7956 55.3984 32.668C55.2552 33.5404 55.0534 34.3411 54.793 35.0703C54.5326 35.7995 54.2266 36.418 53.875 36.9258C53.0547 38.1497 52.1758 39.2044 51.2383 40.0898C50.3008 40.9753 49.3438 41.6914 48.3672 42.2383C47.3906 42.7721 46.4206 43.1628 45.457 43.4102C44.5065 43.6706 43.5625 43.8008 42.625 43.8008C41.5182 43.8008 40.4635 43.625 39.4609 43.2734C38.4714 42.9349 37.625 42.4857 36.9219 41.9258C35.763 40.9622 34.8581 39.6667 34.207 38.0391C33.556 36.3984 33.2305 34.6667 33.2305 32.8438C33.2305 29.7057 34.1354 27.1732 35.9453 25.2461C37.4948 23.5924 39.0964 22.349 40.75 21.5156C42.4036 20.6693 44.0964 20.2461 45.8281 20.2461C46.8438 20.2461 47.8203 20.3763 48.7578 20.6367C49.6953 20.8841 50.6784 21.2878 51.707 21.8477ZM50.5547 25.1289C50.3333 26.1185 49.8516 26.9909 49.1094 27.7461C48.3802 28.5013 47.6641 28.8789 46.9609 28.8789C46.6094 28.8789 46.2969 28.7878 46.0234 28.6055C45.6328 28.293 45.4375 27.7461 45.4375 26.9648C45.4375 26.3659 45.6328 25.7734 46.0234 25.1875C46.4271 24.6016 47.0586 24.1393 47.918 23.8008C47.0586 23.8008 46.2253 23.9635 45.418 24.2891C44.6237 24.6146 43.9401 25.0378 43.3672 25.5586C42.7943 26.0664 42.332 26.6458 41.9805 27.2969C41.6419 27.9349 41.4727 28.5794 41.4727 29.2305C41.4727 30.4414 42.0326 31.4049 43.1523 32.1211C44.194 32.7852 45.1836 33.1172 46.1211 33.1172C47.0456 33.1172 47.8659 32.8112 48.582 32.1992C49.2982 31.5742 49.8451 30.7799 50.2227 29.8164C50.6003 28.8398 50.7891 27.8763 50.7891 26.9258C50.7891 26.2747 50.7109 25.6758 50.5547 25.1289ZM56.3906 10.3633L66.3125 6.20312L67.7578 28.7617L75.9219 24.2891L84.3984 25.5586L73.3438 34.0352L83.7539 41.8867L84.2227 49.7188L68.8711 38.6836L69.3594 48.2734L60.0625 48.4492L58.3047 14.5234L55.4336 15.168L56.3906 10.3633ZM101.992 32.1992L106.699 37.8828C106.322 38.9766 105.423 39.9792 104.004 40.8906C102.598 41.8021 100.918 42.5182 98.9648 43.0391C97.0247 43.5729 95.0846 43.8398 93.1445 43.8398C91.4258 43.8398 89.8893 43.612 88.5352 43.1562C87.194 42.7005 86.1589 42.0104 85.4297 41.0859C84.1667 39.4974 83.5352 37.4661 83.5352 34.9922C83.5352 33.0391 83.8867 31.1185 84.5898 29.2305C85.306 27.3294 86.0612 26.0013 86.8555 25.2461C87.806 24.3477 88.8346 23.599 89.9414 23C91.0612 22.401 92.2201 21.9518 93.418 21.6523C94.6159 21.3529 95.8464 21.2031 97.1094 21.2031C98.763 21.2031 100.332 21.4701 101.816 22.0039C103.314 22.5247 104.622 23.2865 105.742 24.2891L95.0195 37.082C95.9701 37.082 96.8685 36.8867 97.7148 36.4961C98.5742 36.0924 99.362 35.526 100.078 34.7969C100.794 34.0547 101.432 33.1888 101.992 32.1992ZM96.582 27.6484C95.944 27.3229 95.293 27.1602 94.6289 27.1602C93.9258 27.1602 93.2422 27.3034 92.5781 27.5898C91.9271 27.8763 91.4648 28.2148 91.1914 28.6055C90.3841 29.6471 89.9805 30.793 89.9805 32.043C89.9805 32.4987 90.026 32.9349 90.1172 33.3516C90.2083 33.7682 90.3646 34.3411 90.5859 35.0703L96.582 27.6484ZM125.113 16.2812C124.033 15.9036 123.173 15.7148 122.535 15.7148C121.65 15.7148 120.797 16.0078 119.977 16.5938L120.953 34.3672C123.154 33.4167 124.618 32.4792 125.348 31.5547C126.09 30.6172 126.539 29.8424 126.695 29.2305C126.826 28.944 126.956 28.2344 127.086 27.1016C127.229 25.9688 127.301 24.7057 127.301 23.3125C127.301 21.4896 127.132 19.9336 126.793 18.6445C126.467 17.3424 125.908 16.5547 125.113 16.2812ZM132.789 12.7656C133.401 13.9896 133.909 15.2591 134.312 16.5742C134.729 17.8763 135.029 19.1784 135.211 20.4805C135.406 21.7826 135.504 23.0651 135.504 24.3281C135.504 26.5938 135.198 28.7682 134.586 30.8516C133.987 32.9349 133.121 34.8034 131.988 36.457C130.855 38.0977 129.482 39.4323 127.867 40.4609C126.266 41.4896 124.488 42.1211 122.535 42.3555L114.391 43.8008L111.656 18.6836C111.565 18.6836 111.246 19.0286 110.699 19.7188C110.152 20.4089 109.833 20.7539 109.742 20.7539C109.456 20.5586 109.202 20.0052 108.98 19.0938C108.772 18.1823 108.466 16.763 108.062 14.8359C107.672 12.9089 107.379 11.737 107.184 11.3203C110.191 10.3438 113.023 9.55599 115.68 8.95703C118.336 8.34505 120.81 8.03906 123.102 8.03906C128.023 8.03906 131.253 9.61458 132.789 12.7656ZM150.969 23.8789C150.253 23.9701 149.543 24.1979 148.84 24.5625C148.15 24.9271 147.557 25.3568 147.062 25.8516C146.568 26.3464 146.177 26.8932 145.891 27.4922C145.617 28.0781 145.48 28.6576 145.48 29.2305C145.48 30.4154 146.04 31.3789 147.16 32.1211C148.15 32.7852 149.152 33.1172 150.168 33.1172C150.363 33.1172 150.63 33.0911 150.969 33.0391V28.8789C150.617 28.8789 150.305 28.7878 150.031 28.6055C149.641 28.293 149.445 27.694 149.445 26.8086C149.445 25.5326 149.953 24.556 150.969 23.8789ZM151.125 20.4414L159.289 16.7695L159.445 27.6875C159.549 28.3646 159.602 29.1328 159.602 29.9922C159.602 30.7474 159.576 31.3073 159.523 31.6719L159.758 43.6445L150.969 44.1133V42.9219C149.536 43.5078 148.091 43.8008 146.633 43.8008C145.513 43.8008 144.458 43.6315 143.469 43.293C142.492 42.9544 141.646 42.4987 140.93 41.9258C139.771 40.9622 138.866 39.6667 138.215 38.0391C137.564 36.3984 137.238 34.6667 137.238 32.8438C137.238 29.7057 138.143 27.1732 139.953 25.2461C141.516 23.6055 143.124 22.362 144.777 21.5156C146.444 20.6693 148.143 20.2461 149.875 20.2461C150.357 20.2461 150.721 20.2591 150.969 20.2852L151.125 20.4414ZM170.477 20.4414C171.922 19.9596 173.165 19.5951 174.207 19.3477C175.249 19.0872 176.245 18.957 177.195 18.957C178.471 18.957 179.591 19.237 180.555 19.7969C181.714 20.4609 182.964 21.5938 184.305 23.1953C185.646 24.7969 186.479 26.2812 186.805 27.6484C187.495 30.4219 187.84 32.8438 187.84 34.9141C187.84 36.0078 187.768 37.1602 187.625 38.3711C187.482 39.569 187.26 41.112 186.961 43L178.797 43.4883C178.823 42.8372 178.836 41.8997 178.836 40.6758C178.836 35.5716 178.133 31.2292 176.727 27.6484C176.18 26.3073 175.646 25.6367 175.125 25.6367C174.448 25.6367 173.699 26.5742 172.879 28.4492C172.684 28.9049 172.521 29.4258 172.391 30.0117C172.273 30.5977 172.182 31.2552 172.117 31.9844C172.065 32.7135 172.039 33.5729 172.039 34.5625C172.039 36.5677 172.156 39.1133 172.391 42.1992L162.801 43.3125C162.645 42.1667 162.501 41.0273 162.371 39.8945C162.241 38.7617 162.137 37.7135 162.059 36.75C161.993 35.7734 161.961 34.7253 161.961 33.6055C161.961 33.1237 161.987 32.4271 162.039 31.5156L161.688 20.1289L169.363 19.1523L170.477 20.4414ZM198.5 20.4414C199.945 19.9596 201.189 19.5951 202.23 19.3477C203.272 19.0872 204.268 18.957 205.219 18.957C206.495 18.957 207.615 19.237 208.578 19.7969C209.737 20.4609 210.987 21.5938 212.328 23.1953C213.669 24.7969 214.503 26.2812 214.828 27.6484C215.518 30.4219 215.863 32.8438 215.863 34.9141C215.863 36.0078 215.792 37.1602 215.648 38.3711C215.505 39.569 215.284 41.112 214.984 43L206.82 43.4883C206.846 42.8372 206.859 41.8997 206.859 40.6758C206.859 35.5716 206.156 31.2292 204.75 27.6484C204.203 26.3073 203.669 25.6367 203.148 25.6367C202.471 25.6367 201.723 26.5742 200.902 28.4492C200.707 28.9049 200.544 29.4258 200.414 30.0117C200.297 30.5977 200.206 31.2552 200.141 31.9844C200.089 32.7135 200.062 33.5729 200.062 34.5625C200.062 36.5677 200.18 39.1133 200.414 42.1992L190.824 43.3125C190.668 42.1667 190.525 41.0273 190.395 39.8945C190.264 38.7617 190.16 37.7135 190.082 36.75C190.017 35.7734 189.984 34.7253 189.984 33.6055C189.984 33.1237 190.01 32.4271 190.062 31.5156L189.711 20.1289L197.387 19.1523L198.5 20.4414Z"/>
</mask>
<path d="M6.39844 11.9648C7.97396 11.444 9.45182 10.9622 10.832 10.5195C12.2253 10.0768 13.6901 9.66016 15.2266 9.26953C16.763 8.86589 18.2344 8.54688 19.6406 8.3125C20.7214 8.13021 21.8281 8.03906 22.9609 8.03906C24.849 8.03906 26.0859 8.09115 26.6719 8.19531C27.5573 8.36458 28.3906 8.63802 29.1719 9.01562C29.9661 9.39323 30.6693 9.90104 31.2812 10.5391C31.9062 11.1641 32.4141 11.9062 32.8047 12.7656C32.9609 13.1172 33.0391 13.4883 33.0391 13.8789C33.0391 15.3372 32.2383 17.1341 30.6367 19.2695C29.0482 21.4049 27.4466 23.2669 25.832 24.8555C24.2305 26.444 23.0326 27.5833 22.2383 28.2734L25.7539 40.5977L20.6367 44.2891L11.6719 18.6836C11.6458 18.6836 11.5221 18.8073 11.3008 19.0547C11.0794 19.3021 10.7865 19.6276 10.4219 20.0312C10.0703 20.4219 9.84896 20.6628 9.75781 20.7539C9.71875 20.7539 9.58854 20.474 9.36719 19.9141C9.15885 19.3542 8.8724 18.5794 8.50781 17.5898C8.15625 16.5872 7.75911 15.4805 7.31641 14.2695C6.86068 13.0456 6.55469 12.2773 6.39844 11.9648ZM19.0352 17.3945L20.6367 23.1562C21.444 22.3359 22.4466 21.2161 23.6445 19.7969C24.8424 18.3776 25.4414 17.349 25.4414 16.7109C25.4414 16.4635 25.3372 16.3203 25.1289 16.2812C24.543 16.151 23.9635 16.0859 23.3906 16.0859C21.6719 16.0859 20.2201 16.5221 19.0352 17.3945ZM51.707 21.8477C52.6315 22.3424 53.3802 23.013 53.9531 23.8594C54.5391 24.6927 54.9622 25.6367 55.2227 26.6914C55.4961 27.7331 55.6328 28.8203 55.6328 29.9531C55.6328 30.8906 55.5547 31.7956 55.3984 32.668C55.2552 33.5404 55.0534 34.3411 54.793 35.0703C54.5326 35.7995 54.2266 36.418 53.875 36.9258C53.0547 38.1497 52.1758 39.2044 51.2383 40.0898C50.3008 40.9753 49.3438 41.6914 48.3672 42.2383C47.3906 42.7721 46.4206 43.1628 45.457 43.4102C44.5065 43.6706 43.5625 43.8008 42.625 43.8008C41.5182 43.8008 40.4635 43.625 39.4609 43.2734C38.4714 42.9349 37.625 42.4857 36.9219 41.9258C35.763 40.9622 34.8581 39.6667 34.207 38.0391C33.556 36.3984 33.2305 34.6667 33.2305 32.8438C33.2305 29.7057 34.1354 27.1732 35.9453 25.2461C37.4948 23.5924 39.0964 22.349 40.75 21.5156C42.4036 20.6693 44.0964 20.2461 45.8281 20.2461C46.8438 20.2461 47.8203 20.3763 48.7578 20.6367C49.6953 20.8841 50.6784 21.2878 51.707 21.8477ZM50.5547 25.1289C50.3333 26.1185 49.8516 26.9909 49.1094 27.7461C48.3802 28.5013 47.6641 28.8789 46.9609 28.8789C46.6094 28.8789 46.2969 28.7878 46.0234 28.6055C45.6328 28.293 45.4375 27.7461 45.4375 26.9648C45.4375 26.3659 45.6328 25.7734 46.0234 25.1875C46.4271 24.6016 47.0586 24.1393 47.918 23.8008C47.0586 23.8008 46.2253 23.9635 45.418 24.2891C44.6237 24.6146 43.9401 25.0378 43.3672 25.5586C42.7943 26.0664 42.332 26.6458 41.9805 27.2969C41.6419 27.9349 41.4727 28.5794 41.4727 29.2305C41.4727 30.4414 42.0326 31.4049 43.1523 32.1211C44.194 32.7852 45.1836 33.1172 46.1211 33.1172C47.0456 33.1172 47.8659 32.8112 48.582 32.1992C49.2982 31.5742 49.8451 30.7799 50.2227 29.8164C50.6003 28.8398 50.7891 27.8763 50.7891 26.9258C50.7891 26.2747 50.7109 25.6758 50.5547 25.1289ZM56.3906 10.3633L66.3125 6.20312L67.7578 28.7617L75.9219 24.2891L84.3984 25.5586L73.3438 34.0352L83.7539 41.8867L84.2227 49.7188L68.8711 38.6836L69.3594 48.2734L60.0625 48.4492L58.3047 14.5234L55.4336 15.168L56.3906 10.3633ZM101.992 32.1992L106.699 37.8828C106.322 38.9766 105.423 39.9792 104.004 40.8906C102.598 41.8021 100.918 42.5182 98.9648 43.0391C97.0247 43.5729 95.0846 43.8398 93.1445 43.8398C91.4258 43.8398 89.8893 43.612 88.5352 43.1562C87.194 42.7005 86.1589 42.0104 85.4297 41.0859C84.1667 39.4974 83.5352 37.4661 83.5352 34.9922C83.5352 33.0391 83.8867 31.1185 84.5898 29.2305C85.306 27.3294 86.0612 26.0013 86.8555 25.2461C87.806 24.3477 88.8346 23.599 89.9414 23C91.0612 22.401 92.2201 21.9518 93.418 21.6523C94.6159 21.3529 95.8464 21.2031 97.1094 21.2031C98.763 21.2031 100.332 21.4701 101.816 22.0039C103.314 22.5247 104.622 23.2865 105.742 24.2891L95.0195 37.082C95.9701 37.082 96.8685 36.8867 97.7148 36.4961C98.5742 36.0924 99.362 35.526 100.078 34.7969C100.794 34.0547 101.432 33.1888 101.992 32.1992ZM96.582 27.6484C95.944 27.3229 95.293 27.1602 94.6289 27.1602C93.9258 27.1602 93.2422 27.3034 92.5781 27.5898C91.9271 27.8763 91.4648 28.2148 91.1914 28.6055C90.3841 29.6471 89.9805 30.793 89.9805 32.043C89.9805 32.4987 90.026 32.9349 90.1172 33.3516C90.2083 33.7682 90.3646 34.3411 90.5859 35.0703L96.582 27.6484ZM125.113 16.2812C124.033 15.9036 123.173 15.7148 122.535 15.7148C121.65 15.7148 120.797 16.0078 119.977 16.5938L120.953 34.3672C123.154 33.4167 124.618 32.4792 125.348 31.5547C126.09 30.6172 126.539 29.8424 126.695 29.2305C126.826 28.944 126.956 28.2344 127.086 27.1016C127.229 25.9688 127.301 24.7057 127.301 23.3125C127.301 21.4896 127.132 19.9336 126.793 18.6445C126.467 17.3424 125.908 16.5547 125.113 16.2812ZM132.789 12.7656C133.401 13.9896 133.909 15.2591 134.312 16.5742C134.729 17.8763 135.029 19.1784 135.211 20.4805C135.406 21.7826 135.504 23.0651 135.504 24.3281C135.504 26.5938 135.198 28.7682 134.586 30.8516C133.987 32.9349 133.121 34.8034 131.988 36.457C130.855 38.0977 129.482 39.4323 127.867 40.4609C126.266 41.4896 124.488 42.1211 122.535 42.3555L114.391 43.8008L111.656 18.6836C111.565 18.6836 111.246 19.0286 110.699 19.7188C110.152 20.4089 109.833 20.7539 109.742 20.7539C109.456 20.5586 109.202 20.0052 108.98 19.0938C108.772 18.1823 108.466 16.763 108.062 14.8359C107.672 12.9089 107.379 11.737 107.184 11.3203C110.191 10.3438 113.023 9.55599 115.68 8.95703C118.336 8.34505 120.81 8.03906 123.102 8.03906C128.023 8.03906 131.253 9.61458 132.789 12.7656ZM150.969 23.8789C150.253 23.9701 149.543 24.1979 148.84 24.5625C148.15 24.9271 147.557 25.3568 147.062 25.8516C146.568 26.3464 146.177 26.8932 145.891 27.4922C145.617 28.0781 145.48 28.6576 145.48 29.2305C145.48 30.4154 146.04 31.3789 147.16 32.1211C148.15 32.7852 149.152 33.1172 150.168 33.1172C150.363 33.1172 150.63 33.0911 150.969 33.0391V28.8789C150.617 28.8789 150.305 28.7878 150.031 28.6055C149.641 28.293 149.445 27.694 149.445 26.8086C149.445 25.5326 149.953 24.556 150.969 23.8789ZM151.125 20.4414L159.289 16.7695L159.445 27.6875C159.549 28.3646 159.602 29.1328 159.602 29.9922C159.602 30.7474 159.576 31.3073 159.523 31.6719L159.758 43.6445L150.969 44.1133V42.9219C149.536 43.5078 148.091 43.8008 146.633 43.8008C145.513 43.8008 144.458 43.6315 143.469 43.293C142.492 42.9544 141.646 42.4987 140.93 41.9258C139.771 40.9622 138.866 39.6667 138.215 38.0391C137.564 36.3984 137.238 34.6667 137.238 32.8438C137.238 29.7057 138.143 27.1732 139.953 25.2461C141.516 23.6055 143.124 22.362 144.777 21.5156C146.444 20.6693 148.143 20.2461 149.875 20.2461C150.357 20.2461 150.721 20.2591 150.969 20.2852L151.125 20.4414ZM170.477 20.4414C171.922 19.9596 173.165 19.5951 174.207 19.3477C175.249 19.0872 176.245 18.957 177.195 18.957C178.471 18.957 179.591 19.237 180.555 19.7969C181.714 20.4609 182.964 21.5938 184.305 23.1953C185.646 24.7969 186.479 26.2812 186.805 27.6484C187.495 30.4219 187.84 32.8438 187.84 34.9141C187.84 36.0078 187.768 37.1602 187.625 38.3711C187.482 39.569 187.26 41.112 186.961 43L178.797 43.4883C178.823 42.8372 178.836 41.8997 178.836 40.6758C178.836 35.5716 178.133 31.2292 176.727 27.6484C176.18 26.3073 175.646 25.6367 175.125 25.6367C174.448 25.6367 173.699 26.5742 172.879 28.4492C172.684 28.9049 172.521 29.4258 172.391 30.0117C172.273 30.5977 172.182 31.2552 172.117 31.9844C172.065 32.7135 172.039 33.5729 172.039 34.5625C172.039 36.5677 172.156 39.1133 172.391 42.1992L162.801 43.3125C162.645 42.1667 162.501 41.0273 162.371 39.8945C162.241 38.7617 162.137 37.7135 162.059 36.75C161.993 35.7734 161.961 34.7253 161.961 33.6055C161.961 33.1237 161.987 32.4271 162.039 31.5156L161.688 20.1289L169.363 19.1523L170.477 20.4414ZM198.5 20.4414C199.945 19.9596 201.189 19.5951 202.23 19.3477C203.272 19.0872 204.268 18.957 205.219 18.957C206.495 18.957 207.615 19.237 208.578 19.7969C209.737 20.4609 210.987 21.5938 212.328 23.1953C213.669 24.7969 214.503 26.2812 214.828 27.6484C215.518 30.4219 215.863 32.8438 215.863 34.9141C215.863 36.0078 215.792 37.1602 215.648 38.3711C215.505 39.569 215.284 41.112 214.984 43L206.82 43.4883C206.846 42.8372 206.859 41.8997 206.859 40.6758C206.859 35.5716 206.156 31.2292 204.75 27.6484C204.203 26.3073 203.669 25.6367 203.148 25.6367C202.471 25.6367 201.723 26.5742 200.902 28.4492C200.707 28.9049 200.544 29.4258 200.414 30.0117C200.297 30.5977 200.206 31.2552 200.141 31.9844C200.089 32.7135 200.062 33.5729 200.062 34.5625C200.062 36.5677 200.18 39.1133 200.414 42.1992L190.824 43.3125C190.668 42.1667 190.525 41.0273 190.395 39.8945C190.264 38.7617 190.16 37.7135 190.082 36.75C190.017 35.7734 189.984 34.7253 189.984 33.6055C189.984 33.1237 190.01 32.4271 190.062 31.5156L189.711 20.1289L197.387 19.1523L198.5 20.4414Z" fill="#CEDC61"/>
<path d="M6.39844 11.9648L5.14295 8.16698L0.752985 9.61821L2.82073 13.7537L6.39844 11.9648ZM10.832 10.5195L9.62068 6.70735L9.61032 6.71067L10.832 10.5195ZM15.2266 9.26953L16.2122 13.1462L16.2276 13.1423L16.2429 13.1383L15.2266 9.26953ZM19.6406 8.3125L20.2982 12.2581L20.3059 12.2568L19.6406 8.3125ZM26.6719 8.19531L27.423 4.26646L27.3975 4.2616L27.372 4.25706L26.6719 8.19531ZM29.1719 9.01562L27.4312 12.617L27.4428 12.6226L27.4544 12.6282L29.1719 9.01562ZM31.2812 10.5391L28.3945 13.308L28.4234 13.338L28.4528 13.3675L31.2812 10.5391ZM32.8047 12.7656L36.4599 11.1411L36.4531 11.1257L36.4462 11.1104L32.8047 12.7656ZM30.6367 19.2695L27.4367 16.8695L27.432 16.8758L27.4273 16.8821L30.6367 19.2695ZM25.832 24.8555L23.0267 22.0041L23.0209 22.0098L23.0152 22.0155L25.832 24.8555ZM22.2383 28.2734L19.6148 25.254L17.6936 26.9232L18.3917 29.3707L22.2383 28.2734ZM25.7539 40.5977L28.0941 43.8417L30.3704 42.1996L29.6005 39.5004L25.7539 40.5977ZM20.6367 44.2891L16.8614 45.6108L18.6318 50.6675L22.9769 47.5331L20.6367 44.2891ZM11.6719 18.6836L15.4472 17.3618L14.5095 14.6836H11.6719V18.6836ZM10.4219 20.0312L7.45346 17.3501L7.4487 17.3554L10.4219 20.0312ZM9.75781 20.7539V24.7539H11.4147L12.5862 23.5823L9.75781 20.7539ZM9.36719 19.9141L5.6183 21.309L5.63244 21.347L5.64734 21.3847L9.36719 19.9141ZM8.50781 17.5898L4.73314 18.9134L4.74356 18.9431L4.75444 18.9727L8.50781 17.5898ZM7.31641 14.2695L11.0732 12.8961L11.0691 12.8849L11.065 12.8738L7.31641 14.2695ZM19.0352 17.3945L16.6636 14.1734L14.4427 15.8086L15.1813 18.4658L19.0352 17.3945ZM20.6367 23.1562L16.7828 24.2275L18.6355 30.8924L23.4877 25.962L20.6367 23.1562ZM25.1289 16.2812L24.2612 20.186L24.3262 20.2005L24.3918 20.2127L25.1289 16.2812ZM6.39844 11.9648L7.65393 15.7627C9.21978 15.2451 10.6863 14.767 12.0537 14.3284L10.832 10.5195L9.61032 6.71067C8.21736 7.15747 6.72814 7.64295 5.14295 8.16698L6.39844 11.9648ZM10.832 10.5195L12.0434 14.3317C13.3561 13.9146 14.7453 13.5191 16.2122 13.1462L15.2266 9.26953L14.241 5.39286C12.6349 5.80117 11.0944 6.23906 9.62069 6.70736L10.832 10.5195ZM15.2266 9.26953L16.2429 13.1383C17.6742 12.7622 19.0254 12.4702 20.2982 12.2581L19.6406 8.3125L18.983 4.36692C17.4434 4.62354 15.8518 4.96953 14.2102 5.40081L15.2266 9.26953ZM19.6406 8.3125L20.3059 12.2568C21.1596 12.1128 22.0436 12.0391 22.9609 12.0391V8.03906V4.03906C21.6127 4.03906 20.2831 4.14762 18.9753 4.36822L19.6406 8.3125ZM22.9609 8.03906V12.0391C23.8746 12.0391 24.5949 12.0518 25.1364 12.0746C25.4065 12.086 25.6146 12.0991 25.7687 12.1123C25.9328 12.1264 25.989 12.1366 25.9717 12.1336L26.6719 8.19531L27.372 4.25706C26.3761 4.08001 24.7742 4.03906 22.9609 4.03906V8.03906ZM26.6719 8.19531L25.9208 12.1242C26.4768 12.2305 26.9761 12.3971 27.4312 12.617L29.1719 9.01562L30.9125 5.41423C29.8051 4.87897 28.6378 4.4987 27.423 4.26646L26.6719 8.19531ZM29.1719 9.01562L27.4544 12.6282C27.8087 12.7966 28.1162 13.0178 28.3945 13.308L31.2812 10.5391L34.168 7.77016C33.2224 6.7843 32.1236 5.98987 30.8893 5.40309L29.1719 9.01562ZM31.2812 10.5391L28.4528 13.3675C28.7162 13.6309 28.9575 13.9682 29.1632 14.4208L32.8047 12.7656L36.4462 11.1104C35.8706 9.84429 35.0963 8.69727 34.1097 7.71064L31.2812 10.5391ZM32.8047 12.7656L29.1494 14.3902C29.0748 14.2223 29.0391 14.0391 29.0391 13.8789H33.0391H37.0391C37.0391 12.9375 36.8471 12.0121 36.4599 11.1411L32.8047 12.7656ZM33.0391 13.8789H29.0391C29.0391 13.8778 29.0391 13.9409 29.0047 14.0806C28.9701 14.2213 28.9045 14.4235 28.7849 14.6921C28.5408 15.2398 28.117 15.9626 27.4367 16.8695L30.6367 19.2695L33.8367 21.6695C35.5812 19.3435 37.0391 16.6698 37.0391 13.8789H33.0391ZM30.6367 19.2695L27.4273 16.8821C25.9408 18.8804 24.4722 20.582 23.0267 22.0041L25.832 24.8555L28.6374 27.7068C30.4211 25.9519 32.1556 23.9295 33.8461 21.657L30.6367 19.2695ZM25.832 24.8555L23.0152 22.0155C21.4223 23.5954 20.3031 24.6559 19.6148 25.254L22.2383 28.2734L24.8618 31.2929C25.762 30.5107 27.0386 29.2926 28.6489 27.6954L25.832 24.8555ZM22.2383 28.2734L18.3917 29.3707L21.9074 41.6949L25.7539 40.5977L29.6005 39.5004L26.0848 27.1762L22.2383 28.2734ZM25.7539 40.5977L23.4138 37.3536L18.2966 41.045L20.6367 44.2891L22.9769 47.5331L28.0941 43.8417L25.7539 40.5977ZM20.6367 44.2891L24.412 42.9673L15.4472 17.3618L11.6719 18.6836L7.89658 20.0054L16.8614 45.6108L20.6367 44.2891ZM11.6719 18.6836V14.6836C10.9447 14.6836 10.3992 14.8826 10.1667 14.9766C9.89242 15.0875 9.68526 15.2067 9.56728 15.279C9.33264 15.4228 9.16147 15.561 9.08651 15.6229C8.92222 15.7587 8.79296 15.8861 8.73114 15.9479C8.58955 16.0895 8.44451 16.2481 8.31982 16.3875L11.3008 19.0547L14.2817 21.7219C14.3784 21.6138 14.4059 21.5869 14.388 21.6048C14.38 21.6127 14.3607 21.6319 14.3324 21.6584C14.3067 21.6823 14.2541 21.7307 14.1816 21.7906C14.1253 21.8371 13.9698 21.9637 13.7478 22.0998C13.6361 22.1682 13.4345 22.2845 13.165 22.3935C12.9373 22.4855 12.3957 22.6836 11.6719 22.6836V18.6836ZM11.3008 19.0547L8.31982 16.3875C8.10441 16.6283 7.81613 16.9486 7.45346 17.3501L10.4219 20.0312L13.3903 22.7124C13.7568 22.3066 14.0544 21.9759 14.2817 21.7219L11.3008 19.0547ZM10.4219 20.0312L7.4487 17.3554C7.27736 17.5458 7.14437 17.6923 7.04688 17.7984C6.99812 17.8514 6.96239 17.8899 6.93779 17.916C6.9089 17.9467 6.90995 17.9449 6.92939 17.9255L9.75781 20.7539L12.5862 23.5823C12.7689 23.3997 13.0707 23.0675 13.3951 22.7071L10.4219 20.0312ZM9.75781 20.7539V16.7539C10.9149 16.7539 11.7167 17.2472 12.029 17.4638C12.3888 17.7133 12.6254 17.9666 12.7362 18.092C12.9628 18.3484 13.0983 18.5721 13.1344 18.6317C13.2271 18.7851 13.2726 18.8891 13.2577 18.857C13.2436 18.8267 13.1904 18.705 13.087 18.4434L9.36719 19.9141L5.64734 21.3847C5.76529 21.683 5.88787 21.9812 6.00397 22.2309C6.05418 22.3388 6.15346 22.5478 6.2885 22.7711C6.34574 22.8658 6.49949 23.1156 6.74158 23.3896C6.86012 23.5237 7.10378 23.7836 7.46982 24.0375C7.78842 24.2584 8.59587 24.7539 9.75781 24.7539V20.7539ZM9.36719 19.9141L13.1161 18.5191C12.91 17.9652 12.6252 17.1951 12.2612 16.207L8.50781 17.5898L4.75444 18.9727C5.11957 19.9637 5.40775 20.7431 5.6183 21.309L9.36719 19.9141ZM8.50781 17.5898L12.2825 16.2663C11.924 15.2439 11.5208 14.1202 11.0732 12.8961L7.31641 14.2695L3.5596 15.643C3.99747 16.8407 4.3885 17.9305 4.73314 18.9134L8.50781 17.5898ZM7.31641 14.2695L11.065 12.8738C10.6338 11.7158 10.249 10.7217 9.97615 10.176L6.39844 11.9648L2.82073 13.7537C2.81571 13.7437 2.87697 13.8737 3.02904 14.2555C3.16643 14.6005 3.34522 15.0674 3.56782 15.6653L7.31641 14.2695ZM19.0352 17.3945L15.1813 18.4658L16.7828 24.2275L20.6367 23.1562L24.4906 22.085L22.889 16.3233L19.0352 17.3945ZM20.6367 23.1562L23.4877 25.962C24.3961 25.0389 25.4722 23.8331 26.7013 22.3769L23.6445 19.7969L20.5878 17.2169C19.4211 18.5992 18.492 19.6329 17.7858 20.3505L20.6367 23.1562ZM23.6445 19.7969L26.7013 22.3769C27.3767 21.5766 27.9871 20.7668 28.4489 19.9737C28.8442 19.2947 29.4414 18.1183 29.4414 16.7109H25.4414H21.4414C21.4414 16.2686 21.5397 15.9797 21.5648 15.9099C21.5947 15.8267 21.6017 15.8345 21.5355 15.9482C21.3984 16.1837 21.1102 16.5979 20.5878 17.2169L23.6445 19.7969ZM25.4414 16.7109H29.4414C29.4414 16.0684 29.3102 15.0443 28.5982 14.0653C27.8308 13.0101 26.7641 12.5181 25.8661 12.3498L25.1289 16.2812L24.3918 20.2127C23.7021 20.0834 22.7916 19.6826 22.1283 18.7707C21.5205 17.9349 21.4414 17.1061 21.4414 16.7109H25.4414ZM25.1289 16.2812L25.9966 12.3765C25.1393 12.186 24.2689 12.0859 23.3906 12.0859V16.0859V20.0859C23.6581 20.0859 23.9466 20.1161 24.2612 20.186L25.1289 16.2812ZM23.3906 16.0859V12.0859C20.9669 12.0859 18.6463 12.7136 16.6636 14.1734L19.0352 17.3945L21.4067 20.6156C21.7938 20.3306 22.3768 20.0859 23.3906 20.0859V16.0859ZM51.707 21.8477L49.7947 25.3609L49.8071 25.3677L49.8195 25.3743L51.707 21.8477ZM53.9531 23.8594L50.6407 26.1016L50.6606 26.131L50.681 26.1601L53.9531 23.8594ZM55.2227 26.6914L51.3393 27.6503L51.3463 27.6787L51.3537 27.707L55.2227 26.6914ZM55.3984 32.668L51.4611 31.9628L51.456 31.9913L51.4513 32.0199L55.3984 32.668ZM53.875 36.9258L50.5862 34.6489L50.5691 34.6738L50.5522 34.6988L53.875 36.9258ZM48.3672 42.2383L50.2859 45.7481L50.3038 45.7383L50.3216 45.7283L48.3672 42.2383ZM45.457 43.4102L44.4623 39.5358L44.4311 39.5438L44.4001 39.5523L45.457 43.4102ZM39.4609 43.2734L40.7845 39.4988L40.7701 39.4937L40.7557 39.4888L39.4609 43.2734ZM36.9219 41.9258L34.3645 45.0015L34.3971 45.0285L34.4302 45.0549L36.9219 41.9258ZM34.207 38.0391L30.4891 39.5145L30.4931 39.5246L34.207 38.0391ZM35.9453 25.2461L38.861 27.9845L38.8642 27.9811L35.9453 25.2461ZM40.75 21.5156L42.5501 25.0877L42.5613 25.0821L42.5724 25.0764L40.75 21.5156ZM48.7578 20.6367L47.6872 24.4908L47.7122 24.4977L47.7372 24.5043L48.7578 20.6367ZM50.5547 25.1289L54.4008 24.03L46.6512 24.2557L50.5547 25.1289ZM49.1094 27.7461L46.2565 24.9424L46.2441 24.955L46.2318 24.9677L49.1094 27.7461ZM46.0234 28.6055L43.5247 31.7289L43.6602 31.8374L43.8046 31.9337L46.0234 28.6055ZM46.0234 25.1875L42.7294 22.9183L42.7121 22.9434L42.6952 22.9687L46.0234 25.1875ZM47.918 23.8008L49.3841 27.5224L47.918 19.8008V23.8008ZM45.418 24.2891L43.9221 20.5793L43.9116 20.5835L43.9011 20.5878L45.418 24.2891ZM43.3672 25.5586L46.0204 28.552L46.0393 28.5353L46.0579 28.5184L43.3672 25.5586ZM41.9805 27.2969L38.4608 25.3963L38.4539 25.4091L38.4471 25.422L41.9805 27.2969ZM43.1523 32.1211L40.9972 35.4909L41.0021 35.494L43.1523 32.1211ZM48.582 32.1992L51.1806 35.2401L51.1965 35.2266L51.2122 35.2129L48.582 32.1992ZM50.2227 29.8164L53.9469 31.2759L53.9502 31.2675L53.9535 31.259L50.2227 29.8164ZM51.707 21.8477L49.8195 25.3743C50.1873 25.5712 50.4412 25.807 50.6407 26.1016L53.9531 23.8594L57.2656 21.6171C56.3192 20.2191 55.0757 19.1137 53.5945 18.321L51.707 21.8477ZM53.9531 23.8594L50.681 26.1601C50.9633 26.5616 51.1897 27.0446 51.3393 27.6503L55.2227 26.6914L59.106 25.7325C58.7347 24.2288 58.1148 22.8239 57.2252 21.5587L53.9531 23.8594ZM55.2227 26.6914L51.3537 27.707C51.5357 28.4004 51.6328 29.1453 51.6328 29.9531H55.6328H59.6328C59.6328 28.4953 59.4564 27.0658 59.0916 25.6758L55.2227 26.6914ZM55.6328 29.9531H51.6328C51.6328 30.6677 51.5733 31.3361 51.4611 31.9628L55.3984 32.668L59.3358 33.3732C59.536 32.2551 59.6328 31.1135 59.6328 29.9531H55.6328ZM55.3984 32.668L51.4513 32.0199C51.3417 32.6876 51.1951 33.2515 51.026 33.725L54.793 35.0703L58.5599 36.4157C58.9117 35.4308 59.1688 34.3931 59.3456 33.316L55.3984 32.668ZM54.793 35.0703L51.026 33.725C50.8551 34.2035 50.6953 34.4913 50.5862 34.6489L53.875 36.9258L57.1638 39.2026C57.7578 38.3446 58.21 37.3954 58.5599 36.4157L54.793 35.0703ZM53.875 36.9258L50.5522 34.6988C49.875 35.7094 49.1842 36.5278 48.4918 37.1818L51.2383 40.0898L53.9848 42.9979C55.1673 41.881 56.2344 40.5901 57.1978 39.1527L53.875 36.9258ZM51.2383 40.0898L48.4918 37.1818C47.758 37.8748 47.0628 38.3842 46.4128 38.7483L48.3672 42.2383L50.3216 45.7283C51.6247 44.9986 52.8436 44.0757 53.9848 42.9979L51.2383 40.0898ZM48.3672 42.2383L46.4485 38.7285C45.7296 39.1215 45.0684 39.3802 44.4623 39.5358L45.457 43.4102L46.4518 47.2845C47.7728 46.9453 49.0517 46.4228 50.2859 45.7481L48.3672 42.2383ZM45.457 43.4102L44.4001 39.5523C43.7763 39.7232 43.1876 39.8008 42.625 39.8008V43.8008V47.8008C43.9374 47.8008 45.2367 47.6179 46.514 47.268L45.457 43.4102ZM42.625 43.8008V39.8008C41.95 39.8008 41.3442 39.695 40.7845 39.4988L39.4609 43.2734L38.1374 47.0481C39.5829 47.555 41.0865 47.8008 42.625 47.8008V43.8008ZM39.4609 43.2734L40.7557 39.4888C40.1301 39.2748 39.7049 39.0286 39.4136 38.7967L36.9219 41.9258L34.4302 45.0549C35.5451 45.9427 36.8126 46.595 38.1662 47.0581L39.4609 43.2734ZM36.9219 41.9258L39.4792 38.8501C38.91 38.3768 38.3653 37.6644 37.9209 36.5535L34.207 38.0391L30.4931 39.5246C31.3508 41.6689 32.616 43.5477 34.3645 45.0015L36.9219 41.9258ZM34.207 38.0391L37.925 36.5637C37.4664 35.4081 37.2305 34.1783 37.2305 32.8438H33.2305H29.2305C29.2305 35.155 29.6456 37.3888 30.4891 39.5144L34.207 38.0391ZM33.2305 32.8438H37.2305C37.2305 30.5209 37.8748 29.0345 38.861 27.9845L35.9453 25.2461L33.0296 22.5077C30.396 25.3119 29.2305 28.8906 29.2305 32.8438H33.2305ZM35.9453 25.2461L38.8642 27.9811C40.1622 26.5959 41.3976 25.6685 42.5501 25.0877L40.75 21.5156L38.9499 17.9436C36.7951 19.0294 34.8274 20.589 33.0264 22.5111L35.9453 25.2461ZM40.75 21.5156L42.5724 25.0764C43.704 24.4972 44.7756 24.2461 45.8281 24.2461V20.2461V16.2461C43.4171 16.2461 41.1033 16.8413 38.9276 17.9549L40.75 21.5156ZM45.8281 20.2461V24.2461C46.4978 24.2461 47.1133 24.3314 47.6872 24.4908L48.7578 20.6367L49.8284 16.7826C48.5273 16.4212 47.1897 16.2461 45.8281 16.2461V20.2461ZM48.7578 20.6367L47.7372 24.5043C48.308 24.655 48.9918 24.9239 49.7947 25.3609L51.707 21.8477L53.6193 18.3344C52.3649 17.6516 51.0826 17.1133 49.7784 16.7691L48.7578 20.6367ZM50.5547 25.1289L46.6512 24.2557C46.6003 24.4832 46.4993 24.6952 46.2565 24.9424L49.1094 27.7461L51.9623 30.5498C53.2038 29.2865 54.0664 27.7537 54.4582 26.0021L50.5547 25.1289ZM49.1094 27.7461L46.2318 24.9677C46.0794 25.1255 46.0499 25.1154 46.1598 25.0574C46.2892 24.9892 46.57 24.8789 46.9609 24.8789V28.8789V32.8789C49.1861 32.8789 50.874 31.6772 51.987 30.5245L49.1094 27.7461ZM46.9609 28.8789V24.8789C47.3412 24.8789 47.8121 24.9905 48.2422 25.2773L46.0234 28.6055L43.8046 31.9337C44.7817 32.585 45.8775 32.8789 46.9609 32.8789V28.8789ZM46.0234 28.6055L48.5222 25.482C48.9944 25.8598 49.2399 26.3045 49.351 26.6156C49.4505 26.8943 49.4375 27.0451 49.4375 26.9648H45.4375H41.4375C41.4375 28.2732 41.7538 30.3123 43.5247 31.7289L46.0234 28.6055ZM45.4375 26.9648H49.4375C49.4375 27.1083 49.4129 27.2327 49.3829 27.3237C49.3544 27.41 49.3307 27.4376 49.3516 27.4063L46.0234 25.1875L42.6952 22.9687C41.9452 24.0938 41.4375 25.4455 41.4375 26.9648H45.4375ZM46.0234 25.1875L49.3175 27.4567C49.2806 27.5102 49.2447 27.5518 49.2149 27.5819C49.1856 27.6117 49.1659 27.6265 49.1624 27.6291C49.1573 27.6328 49.2176 27.588 49.3841 27.5224L47.918 23.8008L46.4519 20.0791C45.0708 20.6232 43.7014 21.5073 42.7294 22.9183L46.0234 25.1875ZM47.918 23.8008V19.8008C46.5393 19.8008 45.1985 20.0646 43.9221 20.5793L45.418 24.2891L46.9138 27.9988C47.252 27.8625 47.5779 27.8008 47.918 27.8008V23.8008ZM45.418 24.2891L43.9011 20.5878C42.722 21.0711 41.6299 21.7321 40.6765 22.5988L43.3672 25.5586L46.0579 28.5184C46.2503 28.3434 46.5254 28.1581 46.9349 27.9903L45.418 24.2891ZM43.3672 25.5586L40.714 22.5652C39.8028 23.3728 39.0427 24.3188 38.4608 25.3963L41.9805 27.2969L45.5001 29.1975C45.6214 28.9729 45.7857 28.76 46.0204 28.552L43.3672 25.5586ZM41.9805 27.2969L38.4471 25.422C37.8362 26.5732 37.4727 27.8566 37.4727 29.2305H41.4727H45.4727C45.4727 29.2416 45.4719 29.2523 45.4707 29.2616C45.4695 29.2708 45.4682 29.2755 45.4684 29.2748C45.4685 29.2746 45.4771 29.241 45.5139 29.1717L41.9805 27.2969ZM41.4727 29.2305H37.4727C37.4727 31.9571 38.8616 34.1251 40.9972 35.4909L43.1523 32.1211L45.3074 28.7513C45.1813 28.6706 45.2549 28.6862 45.3511 28.8517C45.3966 28.93 45.4306 29.0145 45.4513 29.0949C45.4715 29.1734 45.4727 29.223 45.4727 29.2305H41.4727ZM43.1523 32.1211L41.0021 35.494C42.4862 36.4401 44.2151 37.1172 46.1211 37.1172V33.1172V29.1172C46.1521 29.1172 45.9018 29.1302 45.3026 28.7482L43.1523 32.1211ZM46.1211 33.1172V37.1172C48.018 37.1172 49.7552 36.4582 51.1806 35.2401L48.582 32.1992L45.9834 29.1583C45.9664 29.1728 45.963 29.1735 45.9738 29.167C45.9851 29.1603 46.0049 29.1499 46.0317 29.1399C46.0586 29.1299 46.0838 29.1235 46.104 29.1199C46.1237 29.1165 46.1307 29.1172 46.1211 29.1172V33.1172ZM48.582 32.1992L51.2122 35.2129C52.4547 34.1286 53.356 32.7836 53.9469 31.2759L50.2227 29.8164L46.4984 28.3569C46.3341 28.7763 46.1417 29.0199 45.9519 29.1855L48.582 32.1992ZM50.2227 29.8164L53.9535 31.259C54.4909 29.869 54.7891 28.4174 54.7891 26.9258H50.7891H46.7891C46.7891 27.3352 46.7096 27.8107 46.4918 28.3738L50.2227 29.8164ZM50.7891 26.9258H54.7891C54.7891 25.9557 54.6726 24.9815 54.4008 24.03L50.5547 25.1289L46.7086 26.2278C46.7492 26.37 46.7891 26.5938 46.7891 26.9258H50.7891ZM56.3906 10.3633L54.8439 6.67442L52.8831 7.49659L52.4677 9.58188L56.3906 10.3633ZM66.3125 6.20312L70.3043 5.94737L69.9452 0.342575L64.7658 2.51426L66.3125 6.20312ZM67.7578 28.7617L63.766 29.0175L64.1678 35.2894L69.6797 32.2698L67.7578 28.7617ZM75.9219 24.2891L76.5143 20.3332L75.1817 20.1336L74 20.781L75.9219 24.2891ZM84.3984 25.5586L86.8324 28.7328L94.3108 22.9985L84.9909 21.6027L84.3984 25.5586ZM73.3438 34.0352L70.9098 30.8609L66.7358 34.0615L70.9351 37.2287L73.3438 34.0352ZM83.7539 41.8867L87.7468 41.6477L87.6365 39.8049L86.1625 38.6932L83.7539 41.8867ZM84.2227 49.7188L81.8879 52.9667L88.7181 57.8764L88.2155 49.4798L84.2227 49.7188ZM68.8711 38.6836L71.2058 35.4357L64.4534 30.5818L64.8763 38.887L68.8711 38.6836ZM69.3594 48.2734L69.435 52.2727L73.5642 52.1946L73.3542 48.07L69.3594 48.2734ZM60.0625 48.4492L56.0679 48.6562L56.2681 52.5217L60.1381 52.4485L60.0625 48.4492ZM58.3047 14.5234L62.2993 14.3165L62.054 9.5822L57.4285 10.6206L58.3047 14.5234ZM55.4336 15.168L51.5107 14.3866L50.3093 20.4179L56.3097 19.0708L55.4336 15.168ZM56.3906 10.3633L57.9373 14.0521L67.8592 9.89199L66.3125 6.20312L64.7658 2.51426L54.8439 6.67442L56.3906 10.3633ZM66.3125 6.20312L62.3207 6.45888L63.766 29.0175L67.7578 28.7617L71.7496 28.506L70.3043 5.94737L66.3125 6.20312ZM67.7578 28.7617L69.6797 32.2698L77.8437 27.7971L75.9219 24.2891L74 20.781L65.8359 25.2537L67.7578 28.7617ZM75.9219 24.2891L75.3294 28.2449L83.806 29.5145L84.3984 25.5586L84.9909 21.6027L76.5143 20.3332L75.9219 24.2891ZM84.3984 25.5586L81.9645 22.3843L70.9098 30.8609L73.3438 34.0352L75.7777 37.2094L86.8324 28.7328L84.3984 25.5586ZM73.3438 34.0352L70.9351 37.2287L81.3453 45.0802L83.7539 41.8867L86.1625 38.6932L75.7524 30.8416L73.3438 34.0352ZM83.7539 41.8867L79.7611 42.1257L80.2298 49.9577L84.2227 49.7188L88.2155 49.4798L87.7468 41.6477L83.7539 41.8867ZM84.2227 49.7188L86.5574 46.4708L71.2058 35.4357L68.8711 38.6836L66.5364 41.9315L81.8879 52.9667L84.2227 49.7188ZM68.8711 38.6836L64.8763 38.887L65.3645 48.4768L69.3594 48.2734L73.3542 48.07L72.8659 38.4802L68.8711 38.6836ZM69.3594 48.2734L69.2838 44.2742L59.9869 44.4499L60.0625 48.4492L60.1381 52.4485L69.435 52.2727L69.3594 48.2734ZM60.0625 48.4492L64.0571 48.2422L62.2993 14.3165L58.3047 14.5234L54.31 14.7304L56.0679 48.6562L60.0625 48.4492ZM58.3047 14.5234L57.4285 10.6206L54.5574 11.2651L55.4336 15.168L56.3097 19.0708L59.1808 18.4263L58.3047 14.5234ZM55.4336 15.168L59.3565 15.9494L60.3136 11.1447L56.3906 10.3633L52.4677 9.58188L51.5107 14.3866L55.4336 15.168ZM101.992 32.1992L105.073 29.6479L101.37 25.1765L98.5108 30.2295L101.992 32.1992ZM106.699 37.8828L110.48 39.1882L111.214 37.063L109.78 35.3315L106.699 37.8828ZM104.004 40.8906L101.842 37.5249L101.835 37.5294L101.828 37.534L104.004 40.8906ZM98.9648 43.0391L97.9342 39.1741L97.9189 39.1782L97.9036 39.1824L98.9648 43.0391ZM88.5352 43.1562L87.2482 46.9436L87.2593 46.9473L88.5352 43.1562ZM85.4297 41.0859L88.5704 38.6088L88.5655 38.6027L88.5607 38.5966L85.4297 41.0859ZM84.5898 29.2305L80.8466 27.8204L80.844 27.8274L80.8413 27.8345L84.5898 29.2305ZM86.8555 25.2461L84.1078 22.3391L84.0992 22.3473L86.8555 25.2461ZM89.9414 23L88.0548 19.4729L88.0462 19.4775L88.0376 19.4821L89.9414 23ZM93.418 21.6523L92.4478 17.7718L93.418 21.6523ZM101.816 22.0039L100.463 25.7679L100.482 25.775L100.502 25.7819L101.816 22.0039ZM105.742 24.2891L108.808 26.8585L111.295 23.8915L108.41 21.309L105.742 24.2891ZM95.0195 37.082L91.9539 34.5126L86.4476 41.082H95.0195V37.082ZM97.7148 36.4961L99.3911 40.1279L99.4033 40.1223L99.4154 40.1166L97.7148 36.4961ZM100.078 34.7969L102.932 37.5997L102.944 37.5871L102.957 37.5744L100.078 34.7969ZM96.582 27.6484L99.6935 30.1622L102.792 26.3264L98.3999 24.0854L96.582 27.6484ZM92.5781 27.5898L90.9938 23.917L90.9804 23.9227L90.9672 23.9286L92.5781 27.5898ZM91.1914 28.6055L94.3531 31.0558L94.4126 30.9789L94.4683 30.8993L91.1914 28.6055ZM90.1172 33.3516L86.2096 34.2064L90.1172 33.3516ZM90.5859 35.0703L86.7584 36.2322L88.9519 43.4579L93.6974 37.584L90.5859 35.0703ZM101.992 32.1992L98.9115 34.7506L103.619 40.4342L106.699 37.8828L109.78 35.3315L105.073 29.6479L101.992 32.1992ZM106.699 37.8828L102.918 36.5775C102.941 36.5102 102.84 36.884 101.842 37.5249L104.004 40.8906L106.165 44.2563C108.006 43.0743 109.702 41.4429 110.48 39.1882L106.699 37.8828ZM104.004 40.8906L101.828 37.534C100.839 38.1755 99.5623 38.74 97.9342 39.1741L98.9648 43.0391L99.9955 46.904C102.274 46.2965 104.357 45.4287 106.179 44.2472L104.004 40.8906ZM98.9648 43.0391L97.9036 39.1824C96.2963 39.6247 94.7129 39.8398 93.1445 39.8398V43.8398V47.8398C95.4563 47.8398 97.7532 47.5212 100.026 46.8957L98.9648 43.0391ZM93.1445 43.8398V39.8398C91.7743 39.8398 90.6803 39.6577 89.811 39.3652L88.5352 43.1562L87.2593 46.9473C89.0983 47.5662 91.0773 47.8398 93.1445 47.8398V43.8398ZM88.5352 43.1562L89.8221 39.3689C89.0623 39.1107 88.7315 38.8132 88.5704 38.6088L85.4297 41.0859L82.289 43.5631C83.5862 45.2077 85.3258 46.2903 87.2482 46.9436L88.5352 43.1562ZM85.4297 41.0859L88.5607 38.5966C87.9754 37.8605 87.5352 36.7661 87.5352 34.9922H83.5352H79.5352C79.5352 38.1662 80.3579 41.1343 82.2987 43.5753L85.4297 41.0859ZM83.5352 34.9922H87.5352C87.5352 33.5307 87.7962 32.0822 88.3383 30.6265L84.5898 29.2305L80.8413 27.8345C79.9772 30.1548 79.5352 32.5474 79.5352 34.9922H83.5352ZM84.5898 29.2305L88.333 30.6406C88.9882 28.9016 89.485 28.2654 89.6117 28.1449L86.8555 25.2461L84.0992 22.3473C82.6374 23.7372 81.6238 25.7573 80.8466 27.8204L84.5898 29.2305ZM86.8555 25.2461L89.6031 28.153C90.3102 27.4847 91.057 26.9444 91.8452 26.5179L89.9414 23L88.0376 19.4821C86.6123 20.2535 85.3018 21.2106 84.1078 22.3391L86.8555 25.2461ZM89.9414 23L91.828 26.5271C92.6663 26.0788 93.518 25.7504 94.3881 25.5329L93.418 21.6523L92.4478 17.7718C90.9221 18.1532 89.4561 18.7233 88.0548 19.4729L89.9414 23ZM93.418 21.6523L94.3881 25.5329C95.2615 25.3146 96.1659 25.2031 97.1094 25.2031V21.2031V17.2031C95.5268 17.2031 93.9702 17.3912 92.4478 17.7718L93.418 21.6523ZM97.1094 21.2031V25.2031C98.3241 25.2031 99.4333 25.3976 100.463 25.7679L101.816 22.0039L103.17 18.2399C101.231 17.5425 99.202 17.2031 97.1094 17.2031V21.2031ZM101.816 22.0039L100.502 25.7819C101.528 26.1386 102.37 26.6386 103.074 27.2691L105.742 24.2891L108.41 21.309C106.875 19.9344 105.1 18.9109 103.13 18.2259L101.816 22.0039ZM105.742 24.2891L102.677 21.7196L91.9539 34.5126L95.0195 37.082L98.0851 39.6515L108.808 26.8585L105.742 24.2891ZM95.0195 37.082V41.082C96.5371 41.082 98.0086 40.766 99.3911 40.1279L97.7148 36.4961L96.0386 32.8643C95.7284 33.0075 95.403 33.082 95.0195 33.082V37.082ZM97.7148 36.4961L99.4154 40.1166C100.736 39.4961 101.909 38.6417 102.932 37.5997L100.078 34.7969L97.2243 31.994C96.8154 32.4104 96.4119 32.6888 96.0143 32.8756L97.7148 36.4961ZM100.078 34.7969L102.957 37.5744C103.93 36.5661 104.764 35.4225 105.474 34.169L101.992 32.1992L98.5108 30.2295C98.1002 30.9551 97.659 31.5433 97.1996 32.0194L100.078 34.7969ZM96.582 27.6484L98.3999 24.0854C97.2442 23.4957 95.9739 23.1602 94.6289 23.1602V27.1602V31.1602C94.6304 31.1602 94.6335 31.1599 94.6451 31.1628C94.6579 31.166 94.6968 31.1771 94.7641 31.2115L96.582 27.6484ZM94.6289 27.1602V23.1602C93.3652 23.1602 92.1435 23.421 90.9938 23.917L92.5781 27.5898L94.1625 31.2627C94.3409 31.1857 94.4864 31.1602 94.6289 31.1602V27.1602ZM92.5781 27.5898L90.9672 23.9286C89.9531 24.3748 88.7655 25.0959 87.9145 26.3116L91.1914 28.6055L94.4683 30.8993C94.3089 31.127 94.16 31.2466 94.1066 31.2857C94.0552 31.3233 94.0685 31.3041 94.1891 31.2511L92.5781 27.5898ZM91.1914 28.6055L88.0297 26.1552C86.7107 27.8572 85.9805 29.8555 85.9805 32.043H89.9805H93.9805C93.9805 31.7304 94.0576 31.437 94.3531 31.0558L91.1914 28.6055ZM89.9805 32.043H85.9805C85.9805 32.7666 86.053 33.4905 86.2096 34.2064L90.1172 33.3516L94.0248 32.4968C93.9991 32.3793 93.9805 32.2308 93.9805 32.043H89.9805ZM90.1172 33.3516L86.2096 34.2064C86.3343 34.7766 86.5261 35.4671 86.7584 36.2322L90.5859 35.0703L94.4135 33.9084C94.203 33.2152 94.0823 32.7599 94.0248 32.4968L90.1172 33.3516ZM90.5859 35.0703L93.6974 37.584L99.6935 30.1622L96.582 27.6484L93.4706 25.1347L87.4745 32.5566L90.5859 35.0703ZM125.113 16.2812L123.794 20.0574L123.803 20.0604L123.811 20.0634L125.113 16.2812ZM119.977 16.5938L117.652 13.3388L115.862 14.6172L115.983 16.8132L119.977 16.5938ZM120.953 34.3672L116.959 34.5866L117.274 40.3137L122.539 38.0393L120.953 34.3672ZM125.348 31.5547L122.211 29.0719L122.207 29.0775L125.348 31.5547ZM126.695 29.2305L123.054 27.5753L122.907 27.8977L122.82 28.2409L126.695 29.2305ZM127.086 27.1016L123.118 26.5998L123.115 26.6223L123.112 26.6448L127.086 27.1016ZM126.793 18.6445L122.912 19.6147L122.918 19.6377L122.924 19.6606L126.793 18.6445ZM132.789 12.7656L129.194 14.5187L129.202 14.5367L129.211 14.5545L132.789 12.7656ZM134.312 16.5742L130.489 17.7479L130.496 17.7707L130.503 17.7933L134.312 16.5742ZM135.211 20.4805L131.25 21.0351L131.252 21.0545L131.255 21.0738L135.211 20.4805ZM134.586 30.8516L130.748 29.7242L130.745 29.7353L130.742 29.7463L134.586 30.8516ZM131.988 36.457L135.28 38.7298L135.284 38.7237L135.288 38.7176L131.988 36.457ZM127.867 40.4609L125.718 37.0874L125.712 37.0914L125.706 37.0953L127.867 40.4609ZM122.535 42.3555L122.059 38.384L121.947 38.3974L121.836 38.417L122.535 42.3555ZM114.391 43.8008L110.414 44.2337L110.877 48.4868L115.09 47.7392L114.391 43.8008ZM111.656 18.6836L115.633 18.2507L115.244 14.6836H111.656V18.6836ZM109.742 20.7539L107.489 24.0588L108.508 24.7539H109.742V20.7539ZM108.98 19.0938L105.081 19.985L105.087 20.0114L105.093 20.0377L108.98 19.0938ZM108.062 14.8359L104.142 15.6306L104.145 15.6433L104.147 15.656L108.062 14.8359ZM107.184 11.3203L105.948 7.51581L101.639 8.91512L103.562 13.018L107.184 11.3203ZM115.68 8.95703L116.56 12.8591L116.569 12.857L116.578 12.8549L115.68 8.95703ZM125.113 16.2812L126.433 12.5051C125.209 12.0775 123.846 11.7148 122.535 11.7148V15.7148V19.7148C122.48 19.7148 122.554 19.7093 122.8 19.7633C123.035 19.815 123.362 19.9066 123.794 20.0574L125.113 16.2812ZM122.535 15.7148V11.7148C120.704 11.7148 119.053 12.3381 117.652 13.3388L119.977 16.5938L122.302 19.8487C122.434 19.7543 122.51 19.7247 122.531 19.7176C122.542 19.7138 122.545 19.7136 122.542 19.7141C122.541 19.7144 122.539 19.7146 122.537 19.7147C122.536 19.7148 122.535 19.7148 122.535 19.7148V15.7148ZM119.977 16.5938L115.983 16.8132L116.959 34.5866L120.953 34.3672L124.947 34.1477L123.971 16.3743L119.977 16.5938ZM120.953 34.3672L122.539 38.0393C124.841 37.0449 127.105 35.7854 128.488 34.0318L125.348 31.5547L122.207 29.0775C122.217 29.0653 122.065 29.2501 121.546 29.5821C121.048 29.9005 120.338 30.2758 119.367 30.6951L120.953 34.3672ZM125.348 31.5547L128.484 34.0375C129.318 32.9834 130.201 31.6693 130.571 30.22L126.695 29.2305L122.82 28.2409C122.862 28.0763 122.891 28.0738 122.781 28.2641C122.679 28.4406 122.5 28.7073 122.211 29.0719L125.348 31.5547ZM126.695 29.2305L130.337 30.8857C130.624 30.2545 130.757 29.5766 130.825 29.2053C130.913 28.7274 130.99 28.169 131.06 27.5583L127.086 27.1016L123.112 26.6448C123.052 27.1669 122.999 27.5297 122.956 27.7615C122.935 27.8769 122.923 27.9252 122.923 27.9245C122.924 27.9225 122.931 27.893 122.948 27.843C122.963 27.7967 122.997 27.7009 123.054 27.5753L126.695 29.2305ZM127.086 27.1016L131.054 27.6033C131.223 26.2726 131.301 24.8385 131.301 23.3125H127.301H123.301C123.301 24.573 123.236 25.6649 123.118 26.5998L127.086 27.1016ZM127.301 23.3125H131.301C131.301 21.2629 131.113 19.3454 130.662 17.6285L126.793 18.6445L122.924 19.6606C123.15 20.5218 123.301 21.7163 123.301 23.3125H127.301ZM126.793 18.6445L130.674 17.6744C130.223 15.8719 129.119 13.4298 126.415 12.4991L125.113 16.2812L123.811 20.0634C123.579 19.9833 123.37 19.8665 123.198 19.7312C123.029 19.5992 122.924 19.4731 122.869 19.3944C122.771 19.2572 122.827 19.2727 122.912 19.6147L126.793 18.6445ZM132.789 12.7656L129.211 14.5545C129.724 15.5795 130.149 16.6432 130.489 17.7479L134.312 16.5742L138.136 15.4005C137.668 13.875 137.078 12.3997 136.367 10.9768L132.789 12.7656ZM134.312 16.5742L130.503 17.7933C130.853 18.8872 131.1 19.9672 131.25 21.0351L135.211 20.4805L139.172 19.9259C138.957 18.3896 138.605 16.8654 138.122 15.3551L134.312 16.5742ZM135.211 20.4805L131.255 21.0738C131.422 22.1878 131.504 23.2719 131.504 24.3281H135.504H139.504C139.504 22.8583 139.39 21.3773 139.167 19.8871L135.211 20.4805ZM135.504 24.3281H131.504C131.504 26.2288 131.248 28.0226 130.748 29.7242L134.586 30.8516L138.424 31.9789C139.148 29.5138 139.504 26.9587 139.504 24.3281H135.504ZM134.586 30.8516L130.742 29.7463C130.251 31.4514 129.56 32.9239 128.688 34.1964L131.988 36.457L135.288 38.7176C136.682 36.6828 137.722 34.4184 138.43 31.9568L134.586 30.8516ZM131.988 36.457L128.697 34.1843C127.855 35.404 126.863 36.3576 125.718 37.0874L127.867 40.4609L130.016 43.8345C132.1 42.507 133.856 40.7914 135.28 38.7298L131.988 36.457ZM127.867 40.4609L125.706 37.0953C124.63 37.7862 123.432 38.2191 122.059 38.384L122.535 42.3555L123.012 46.327C125.544 46.0231 127.901 45.193 130.029 43.8265L127.867 40.4609ZM122.535 42.3555L121.836 38.417L113.692 39.8623L114.391 43.8008L115.09 47.7392L123.234 46.2939L122.535 42.3555ZM114.391 43.8008L118.367 43.3679L115.633 18.2507L111.656 18.6836L107.68 19.1165L110.414 44.2337L114.391 43.8008ZM111.656 18.6836V14.6836C110.553 14.6836 109.775 15.1401 109.598 15.2433C109.303 15.415 109.085 15.5906 108.97 15.6874C108.731 15.8889 108.534 16.0946 108.412 16.227C108.148 16.5124 107.856 16.8656 107.564 17.2344L110.699 19.7188L113.834 22.2031C114.089 21.8818 114.231 21.7174 114.286 21.6578C114.323 21.6177 114.257 21.6939 114.12 21.8092C114.056 21.8629 113.882 22.0061 113.625 22.1563C113.492 22.2337 113.276 22.3485 112.993 22.4505C112.724 22.5474 112.256 22.6836 111.656 22.6836V18.6836ZM110.699 19.7188L107.564 17.2344C107.31 17.5557 107.168 17.7201 107.113 17.7797C107.076 17.8198 107.141 17.7436 107.278 17.6283C107.342 17.5746 107.516 17.4314 107.774 17.2812C107.907 17.2038 108.122 17.089 108.405 16.987C108.674 16.8901 109.142 16.7539 109.742 16.7539V20.7539V24.7539C110.846 24.7539 111.623 24.2974 111.8 24.1942C112.095 24.0225 112.313 23.8469 112.428 23.7501C112.668 23.5486 112.865 23.3429 112.987 23.2105C113.251 22.9251 113.542 22.5719 113.834 22.2031L110.699 19.7188ZM109.742 20.7539L111.996 17.449C112.411 17.7323 112.657 18.0339 112.777 18.1994C112.901 18.3712 112.96 18.4961 112.972 18.5243C112.993 18.5695 112.946 18.4746 112.867 18.1498L108.98 19.0938L105.093 20.0377C105.236 20.6244 105.427 21.2619 105.701 21.8605C105.932 22.3634 106.444 23.3468 107.489 24.0588L109.742 20.7539ZM108.98 19.0938L112.88 18.2025C112.68 17.3286 112.38 15.9391 111.978 14.0159L108.062 14.8359L104.147 15.656C104.552 17.5869 104.864 19.036 105.081 19.985L108.98 19.0938ZM108.062 14.8359L111.983 14.0413C111.782 13.0504 111.598 12.2102 111.43 11.5416C111.29 10.9817 111.089 10.228 110.805 9.62258L107.184 11.3203L103.562 13.018C103.492 12.8694 103.483 12.812 103.525 12.9497C103.558 13.0576 103.606 13.2299 103.669 13.4819C103.795 13.9851 103.952 14.6944 104.142 15.6306L108.062 14.8359ZM107.184 11.3203L108.419 15.1248C111.328 14.1803 114.04 13.4271 116.56 12.8591L115.68 8.95703L114.8 5.055C112.006 5.68489 109.055 6.50719 105.948 7.51581L107.184 11.3203ZM115.68 8.95703L116.578 12.8549C118.993 12.2984 121.163 12.0391 123.102 12.0391V8.03906V4.03906C120.457 4.03906 117.679 4.39168 114.782 5.05914L115.68 8.95703ZM123.102 8.03906V12.0391C127.206 12.0391 128.591 13.2834 129.194 14.5187L132.789 12.7656L136.384 11.0125C133.914 5.94579 128.841 4.03906 123.102 4.03906V8.03906ZM150.969 23.8789L153.188 27.2071L150.464 19.9109L150.969 23.8789ZM148.84 24.5625L146.999 21.0115L146.985 21.0186L146.971 21.0257L148.84 24.5625ZM145.891 27.4922L142.282 25.7664L142.274 25.7835L142.266 25.8006L145.891 27.4922ZM147.16 32.1211L149.389 28.7996L149.38 28.7933L149.37 28.7869L147.16 32.1211ZM150.969 33.0391L151.577 36.9925L154.969 36.4707V33.0391H150.969ZM150.969 28.8789H154.969V24.8789H150.969V28.8789ZM150.031 28.6055L147.532 31.7289L147.668 31.8374L147.812 31.9337L150.031 28.6055ZM151.125 20.4414L148.297 23.2698L150.248 25.2216L152.766 24.0894L151.125 20.4414ZM159.289 16.7695L163.289 16.7123L163.202 10.6239L157.648 13.1215L159.289 16.7695ZM159.445 27.6875L155.446 27.7447L155.45 28.0218L155.492 28.2957L159.445 27.6875ZM159.523 31.6719L155.564 31.1062L155.518 31.4266L155.524 31.7502L159.523 31.6719ZM159.758 43.6445L159.971 47.6389L163.833 47.4329L163.757 43.5662L159.758 43.6445ZM150.969 44.1133H146.969V48.3323L151.182 48.1076L150.969 44.1133ZM150.969 42.9219H154.969V36.9637L149.454 39.2197L150.969 42.9219ZM143.469 43.293L142.159 47.0723L142.166 47.075L142.174 47.0776L143.469 43.293ZM140.93 41.9258L138.372 45.0015L138.401 45.0257L138.431 45.0493L140.93 41.9258ZM138.215 38.0391L134.497 39.5145L134.501 39.5246L138.215 38.0391ZM139.953 25.2461L137.057 22.4875L137.047 22.4976L137.037 22.5077L139.953 25.2461ZM144.777 21.5156L142.966 17.9491L142.955 17.9549L144.777 21.5156ZM150.969 20.2852L153.797 17.4567L152.796 16.4554L151.387 16.3071L150.969 20.2852ZM150.969 23.8789L150.464 19.9109C149.238 20.0669 148.079 20.4514 146.999 21.0115L148.84 24.5625L150.681 28.1135C151.007 27.9444 151.267 27.8732 151.474 27.8469L150.969 23.8789ZM148.84 24.5625L146.971 21.0257C145.968 21.5558 145.042 22.2151 144.234 23.0231L147.062 25.8516L149.891 28.68C150.072 28.4985 150.332 28.2983 150.708 28.0993L148.84 24.5625ZM147.062 25.8516L144.234 23.0231C143.436 23.8212 142.775 24.7366 142.282 25.7664L145.891 27.4922L149.499 29.218C149.58 29.0498 149.699 28.8716 149.891 28.68L147.062 25.8516ZM145.891 27.4922L142.266 25.8006C141.777 26.8479 141.48 28.0021 141.48 29.2305H145.48H149.48C149.48 29.2467 149.479 29.2605 149.478 29.2708C149.477 29.2811 149.476 29.286 149.476 29.2848C149.477 29.2829 149.484 29.2499 149.515 29.1837L145.891 27.4922ZM145.48 29.2305H141.48C141.48 31.9539 142.888 34.0881 144.95 35.4552L147.16 32.1211L149.37 28.7869C149.219 28.6866 149.273 28.684 149.359 28.8321C149.4 28.9034 149.434 28.9853 149.456 29.0689C149.478 29.1511 149.48 29.2091 149.48 29.2305H145.48ZM147.16 32.1211L144.931 35.4426C146.463 36.4705 148.229 37.1172 150.168 37.1172V33.1172V29.1172C150.076 29.1172 149.836 29.0998 149.389 28.7996L147.16 32.1211ZM150.168 33.1172V37.1172C150.664 37.1172 151.163 37.0562 151.577 36.9925L150.969 33.0391L150.361 29.0856C150.245 29.1033 150.169 29.1123 150.126 29.1166C150.106 29.1186 150.098 29.1189 150.103 29.1186C150.107 29.1184 150.13 29.1172 150.168 29.1172V33.1172ZM150.969 33.0391H154.969V28.8789H150.969H146.969V33.0391H150.969ZM150.969 28.8789V24.8789C151.349 24.8789 151.82 24.9905 152.25 25.2773L150.031 28.6055L147.812 31.9337C148.789 32.585 149.885 32.8789 150.969 32.8789V28.8789ZM150.031 28.6055L152.53 25.482C153.084 25.9254 153.313 26.4316 153.395 26.6818C153.469 26.9086 153.445 26.9869 153.445 26.8086H149.445H145.445C145.445 28.0171 145.666 30.2356 147.532 31.7289L150.031 28.6055ZM149.445 26.8086H153.445C153.445 26.7104 153.462 26.7983 153.375 26.9646C153.335 27.0409 153.288 27.1052 153.244 27.1531C153.201 27.1995 153.176 27.2149 153.188 27.2071L150.969 23.8789L148.75 20.5507C146.562 22.0091 145.445 24.2678 145.445 26.8086H149.445ZM151.125 20.4414L152.766 24.0894L160.93 20.4175L159.289 16.7695L157.648 13.1215L149.484 16.7934L151.125 20.4414ZM159.289 16.7695L155.289 16.8268L155.446 27.7447L159.445 27.6875L163.445 27.6303L163.289 16.7123L159.289 16.7695ZM159.445 27.6875L155.492 28.2957C155.558 28.7285 155.602 29.2877 155.602 29.9922H159.602H163.602C163.602 28.978 163.541 28.0007 163.399 27.0793L159.445 27.6875ZM159.602 29.9922H155.602C155.602 30.3275 155.596 30.5916 155.586 30.7927C155.582 30.8922 155.577 30.9687 155.572 31.025C155.567 31.0826 155.563 31.1075 155.564 31.1062L159.523 31.6719L163.483 32.2376C163.577 31.5784 163.602 30.7833 163.602 29.9922H159.602ZM159.523 31.6719L155.524 31.7502L155.759 43.7228L159.758 43.6445L163.757 43.5662L163.523 31.5936L159.523 31.6719ZM159.758 43.6445L159.545 39.6502L150.756 40.119L150.969 44.1133L151.182 48.1076L159.971 47.6389L159.758 43.6445ZM150.969 44.1133H154.969V42.9219H150.969H146.969V44.1133H150.969ZM150.969 42.9219L149.454 39.2197C148.473 39.6212 147.541 39.8008 146.633 39.8008V43.8008V47.8008C148.642 47.8008 150.6 47.3945 152.483 46.6241L150.969 42.9219ZM146.633 43.8008V39.8008C145.922 39.8008 145.308 39.6945 144.764 39.5083L143.469 43.293L142.174 47.0776C143.609 47.5685 145.104 47.8008 146.633 47.8008V43.8008ZM143.469 43.293L144.779 39.5136C144.179 39.3056 143.747 39.0568 143.428 38.8023L140.93 41.9258L138.431 45.0493C139.545 45.9406 140.805 46.6032 142.159 47.0723L143.469 43.293ZM140.93 41.9258L143.487 38.8501C142.918 38.3768 142.373 37.6644 141.929 36.5535L138.215 38.0391L134.501 39.5246C135.359 41.6689 136.624 43.5477 138.372 45.0015L140.93 41.9258ZM138.215 38.0391L141.933 36.5637C141.474 35.4081 141.238 34.1783 141.238 32.8438H137.238H133.238C133.238 35.155 133.653 37.3888 134.497 39.5144L138.215 38.0391ZM137.238 32.8438H141.238C141.238 30.5209 141.883 29.0345 142.869 27.9845L139.953 25.2461L137.037 22.5077C134.404 25.3119 133.238 28.8906 133.238 32.8438H137.238ZM139.953 25.2461L142.85 28.0047C144.168 26.6208 145.424 25.6783 146.6 25.0764L144.777 21.5156L142.955 17.9549C140.824 19.0457 138.864 20.5901 137.057 22.4875L139.953 25.2461ZM144.777 21.5156L146.588 25.0821C147.739 24.4976 148.822 24.2461 149.875 24.2461V20.2461V16.2461C147.465 16.2461 145.149 16.8409 142.966 17.9491L144.777 21.5156ZM149.875 20.2461V24.2461C150.082 24.2461 150.245 24.2489 150.367 24.2533C150.428 24.2555 150.473 24.2578 150.506 24.2599C150.54 24.2621 150.553 24.2635 150.55 24.2632L150.969 20.2852L151.387 16.3071C150.926 16.2586 150.393 16.2461 149.875 16.2461V20.2461ZM150.969 20.2852L148.14 23.1136L148.297 23.2698L151.125 20.4414L153.953 17.613L153.797 17.4567L150.969 20.2852ZM170.477 20.4414L167.449 23.0559L169.2 25.0832L171.741 24.2361L170.477 20.4414ZM174.207 19.3477L175.131 23.2394L175.154 23.2339L175.177 23.2282L174.207 19.3477ZM180.555 19.7969L178.545 23.2554L178.555 23.2614L178.566 23.2674L180.555 19.7969ZM186.805 27.6484L182.913 28.5749L182.918 28.5946L182.923 28.6143L186.805 27.6484ZM187.625 38.3711L191.597 38.846L191.597 38.8409L187.625 38.3711ZM186.961 43L187.2 46.9929L190.408 46.801L190.912 43.6266L186.961 43ZM178.797 43.4883L174.8 43.3284L174.623 47.745L179.036 47.4811L178.797 43.4883ZM176.727 27.6484L180.45 26.1862L180.44 26.1621L180.43 26.1381L176.727 27.6484ZM172.879 28.4492L169.214 26.8459L169.208 26.8597L169.202 26.8735L172.879 28.4492ZM172.391 30.0117L168.486 29.144L168.477 29.1855L168.468 29.2273L172.391 30.0117ZM172.117 31.9844L168.133 31.6286L168.13 31.664L168.127 31.6994L172.117 31.9844ZM172.391 42.1992L172.852 46.1725L176.67 45.7293L176.379 41.8963L172.391 42.1992ZM162.801 43.3125L158.837 43.853L159.367 47.738L163.262 47.2858L162.801 43.3125ZM162.059 36.75L158.067 37.0161L158.069 37.0447L158.072 37.0733L162.059 36.75ZM162.039 31.5156L166.033 31.7438L166.043 31.5681L166.037 31.3922L162.039 31.5156ZM161.688 20.1289L161.183 16.1609L157.577 16.6196L157.689 20.2523L161.688 20.1289ZM169.363 19.1523L172.391 16.5379L170.988 14.9134L168.858 15.1843L169.363 19.1523ZM170.477 20.4414L171.741 24.2361C173.117 23.7775 174.241 23.4508 175.131 23.2394L174.207 19.3477L173.283 15.4559C172.089 15.7393 170.726 16.1418 169.212 16.6467L170.477 20.4414ZM174.207 19.3477L175.177 23.2282C175.942 23.0371 176.611 22.957 177.195 22.957V18.957V14.957C175.879 14.957 174.556 15.1374 173.237 15.4671L174.207 19.3477ZM177.195 18.957V22.957C177.869 22.957 178.276 23.099 178.545 23.2554L180.555 19.7969L182.564 16.3384C180.906 15.375 179.073 14.957 177.195 14.957V18.957ZM180.555 19.7969L178.566 23.2674C179.151 23.6026 180.049 24.3431 181.238 25.7634L184.305 23.1953L187.371 20.6272C185.879 18.8444 184.276 17.3193 182.543 16.3263L180.555 19.7969ZM184.305 23.1953L181.238 25.7634C182.359 27.1018 182.784 28.0332 182.913 28.5749L186.805 27.6484L190.696 26.722C190.174 24.5293 188.933 22.492 187.371 20.6272L184.305 23.1953ZM186.805 27.6484L182.923 28.6143C183.562 31.1821 183.84 33.2661 183.84 34.9141H187.84H191.84C191.84 32.4214 191.428 29.6617 190.686 26.6826L186.805 27.6484ZM187.84 34.9141H183.84C183.84 35.8342 183.78 36.8288 183.653 37.9013L187.625 38.3711L191.597 38.8409C191.757 37.4915 191.84 36.1815 191.84 34.9141H187.84ZM187.625 38.3711L183.653 37.8962C183.519 39.0231 183.306 40.5104 183.01 42.3734L186.961 43L190.912 43.6266C191.215 41.7136 191.445 40.115 191.597 38.846L187.625 38.3711ZM186.961 43L186.722 39.0071L178.558 39.4954L178.797 43.4883L179.036 47.4811L187.2 46.9929L186.961 43ZM178.797 43.4883L182.794 43.6482C182.823 42.9163 182.836 41.9155 182.836 40.6758H178.836H174.836C174.836 41.8839 174.823 42.7582 174.8 43.3284L178.797 43.4883ZM178.836 40.6758H182.836C182.836 35.2256 182.088 30.3576 180.45 26.1862L176.727 27.6484L173.003 29.1106C174.178 32.1007 174.836 35.9176 174.836 40.6758H178.836ZM176.727 27.6484L180.43 26.1381C180.098 25.3219 179.657 24.4168 179.045 23.6483C178.503 22.9668 177.212 21.6367 175.125 21.6367V25.6367V29.6367C174.355 29.6367 173.752 29.3797 173.372 29.138C173.019 28.9135 172.834 28.6908 172.787 28.631C172.709 28.5331 172.809 28.6338 173.023 29.1588L176.727 27.6484ZM175.125 25.6367V21.6367C172.893 21.6367 171.505 23.1239 170.93 23.8437C170.238 24.7106 169.681 25.7795 169.214 26.8459L172.879 28.4492L176.544 30.0525C176.71 29.6717 176.855 29.3815 176.974 29.1675C177.097 28.9476 177.169 28.8515 177.181 28.836C177.204 28.808 177.086 28.9676 176.801 29.1547C176.496 29.3553 175.917 29.6367 175.125 29.6367V25.6367ZM172.879 28.4492L169.202 26.8735C168.891 27.5994 168.659 28.3642 168.486 29.144L172.391 30.0117L176.295 30.8794C176.383 30.4873 176.476 30.2105 176.555 30.0249L172.879 28.4492ZM172.391 30.0117L168.468 29.2273C168.317 29.9822 168.208 30.7862 168.133 31.6286L172.117 31.9844L176.101 32.3401C176.156 31.7242 176.23 31.2131 176.313 30.7962L172.391 30.0117ZM172.117 31.9844L168.127 31.6994C168.067 32.5498 168.039 33.5086 168.039 34.5625H172.039H176.039C176.039 33.6372 176.064 32.8773 176.107 32.2694L172.117 31.9844ZM172.039 34.5625H168.039C168.039 36.7074 168.164 39.3631 168.402 42.5021L172.391 42.1992L176.379 41.8963C176.149 38.8634 176.039 36.428 176.039 34.5625H172.039ZM172.391 42.1992L171.929 38.2259L162.34 39.3392L162.801 43.3125L163.262 47.2858L172.852 46.1725L172.391 42.1992ZM162.801 43.3125L166.764 42.772C166.612 41.6537 166.472 40.5423 166.345 39.4378L162.371 39.8945L158.397 40.3513C158.531 41.5124 158.677 42.6797 158.837 43.853L162.801 43.3125ZM162.371 39.8945L166.345 39.4378C166.219 38.3418 166.119 37.3387 166.046 36.4267L162.059 36.75L158.072 37.0733C158.154 38.0884 158.263 39.1817 158.397 40.3513L162.371 39.8945ZM162.059 36.75L166.05 36.4839C165.991 35.6074 165.961 34.6488 165.961 33.6055H161.961H157.961C157.961 34.8017 157.996 35.9394 158.067 37.0161L162.059 36.75ZM161.961 33.6055H165.961C165.961 33.2396 165.982 32.6336 166.033 31.7438L162.039 31.5156L158.046 31.2874C157.992 32.2206 157.961 33.0078 157.961 33.6055H161.961ZM162.039 31.5156L166.037 31.3922L165.686 20.0055L161.688 20.1289L157.689 20.2523L158.041 31.6391L162.039 31.5156ZM161.688 20.1289L162.192 24.0969L169.868 23.1204L169.363 19.1523L168.858 15.1843L161.183 16.1609L161.688 20.1289ZM169.363 19.1523L166.336 21.7668L167.449 23.0559L170.477 20.4414L173.504 17.8269L172.391 16.5379L169.363 19.1523ZM198.5 20.4414L195.473 23.0559L197.224 25.0832L199.765 24.2361L198.5 20.4414ZM202.23 19.3477L203.155 23.2394L203.178 23.2339L203.201 23.2282L202.23 19.3477ZM208.578 19.7969L206.568 23.2554L206.579 23.2614L206.589 23.2674L208.578 19.7969ZM214.828 27.6484L210.937 28.5749L210.942 28.5946L210.946 28.6143L214.828 27.6484ZM215.648 38.3711L219.62 38.846L219.621 38.8409L215.648 38.3711ZM214.984 43L215.223 46.9929L218.431 46.801L218.935 43.6266L214.984 43ZM206.82 43.4883L202.824 43.3284L202.647 47.745L207.059 47.4811L206.82 43.4883ZM204.75 27.6484L208.473 26.1862L208.464 26.1621L208.454 26.1381L204.75 27.6484ZM200.902 28.4492L197.238 26.8459L197.232 26.8597L197.226 26.8735L200.902 28.4492ZM200.414 30.0117L196.509 29.144L196.5 29.1855L196.492 29.2273L200.414 30.0117ZM200.141 31.9844L196.156 31.6286L196.153 31.664L196.151 31.6994L200.141 31.9844ZM200.414 42.1992L200.875 46.1725L204.694 45.7293L204.403 41.8963L200.414 42.1992ZM190.824 43.3125L186.861 43.853L187.391 47.738L191.285 47.2858L190.824 43.3125ZM190.082 36.75L186.091 37.0161L186.093 37.0447L186.095 37.0733L190.082 36.75ZM190.062 31.5156L194.056 31.7438L194.066 31.5681L194.061 31.3922L190.062 31.5156ZM189.711 20.1289L189.206 16.1609L185.601 16.6196L185.713 20.2523L189.711 20.1289ZM197.387 19.1523L200.414 16.5379L199.011 14.9134L196.882 15.1843L197.387 19.1523ZM198.5 20.4414L199.765 24.2361C201.141 23.7775 202.265 23.4508 203.155 23.2394L202.23 19.3477L201.306 15.4559C200.113 15.7393 198.75 16.1418 197.235 16.6467L198.5 20.4414ZM202.23 19.3477L203.201 23.2282C203.965 23.0371 204.634 22.957 205.219 22.957V18.957V14.957C203.902 14.957 202.579 15.1374 201.26 15.4671L202.23 19.3477ZM205.219 18.957V22.957C205.893 22.957 206.299 23.099 206.568 23.2554L208.578 19.7969L210.588 16.3384C208.93 15.375 207.097 14.957 205.219 14.957V18.957ZM208.578 19.7969L206.589 23.2674C207.174 23.6026 208.072 24.3431 209.261 25.7634L212.328 23.1953L215.395 20.6272C213.902 18.8444 212.3 17.3193 210.567 16.3263L208.578 19.7969ZM212.328 23.1953L209.261 25.7634C210.382 27.1018 210.808 28.0332 210.937 28.5749L214.828 27.6484L218.719 26.722C218.197 24.5293 216.956 22.492 215.395 20.6272L212.328 23.1953ZM214.828 27.6484L210.946 28.6143C211.585 31.1821 211.863 33.2661 211.863 34.9141H215.863H219.863C219.863 32.4214 219.451 29.6617 218.71 26.6826L214.828 27.6484ZM215.863 34.9141H211.863C211.863 35.8342 211.803 36.8288 211.676 37.9013L215.648 38.3711L219.621 38.8409C219.78 37.4915 219.863 36.1815 219.863 34.9141H215.863ZM215.648 38.3711L211.677 37.8962C211.542 39.0231 211.329 40.5104 211.034 42.3734L214.984 43L218.935 43.6266C219.238 41.7136 219.468 40.115 219.62 38.846L215.648 38.3711ZM214.984 43L214.746 39.0071L206.582 39.4954L206.82 43.4883L207.059 47.4811L215.223 46.9929L214.984 43ZM206.82 43.4883L210.817 43.6482C210.846 42.9163 210.859 41.9155 210.859 40.6758H206.859H202.859C202.859 41.8839 202.846 42.7582 202.824 43.3284L206.82 43.4883ZM206.859 40.6758H210.859C210.859 35.2256 210.111 30.3576 208.473 26.1862L204.75 27.6484L201.027 29.1106C202.201 32.1007 202.859 35.9176 202.859 40.6758H206.859ZM204.75 27.6484L208.454 26.1381C208.121 25.3219 207.681 24.4168 207.069 23.6483C206.526 22.9668 205.235 21.6367 203.148 21.6367V25.6367V29.6367C202.378 29.6367 201.776 29.3797 201.395 29.138C201.042 28.9135 200.858 28.6908 200.81 28.631C200.732 28.5331 200.832 28.6338 201.046 29.1588L204.75 27.6484ZM203.148 25.6367V21.6367C200.917 21.6367 199.528 23.1239 198.954 23.8437C198.261 24.7106 197.704 25.7795 197.238 26.8459L200.902 28.4492L204.567 30.0525C204.734 29.6717 204.878 29.3815 204.997 29.1675C205.12 28.9476 205.192 28.8515 205.205 28.836C205.227 28.808 205.109 28.9676 204.825 29.1547C204.52 29.3553 203.941 29.6367 203.148 29.6367V25.6367ZM200.902 28.4492L197.226 26.8735C196.915 27.5994 196.683 28.3642 196.509 29.144L200.414 30.0117L204.319 30.8794C204.406 30.4873 204.499 30.2105 204.579 30.0249L200.902 28.4492ZM200.414 30.0117L196.492 29.2273C196.341 29.9822 196.232 30.7862 196.156 31.6286L200.141 31.9844L204.125 32.3401C204.18 31.7242 204.253 31.2131 204.336 30.7962L200.414 30.0117ZM200.141 31.9844L196.151 31.6994C196.09 32.5498 196.062 33.5086 196.062 34.5625H200.062H204.062C204.062 33.6372 204.087 32.8773 204.13 32.2694L200.141 31.9844ZM200.062 34.5625H196.062C196.062 36.7074 196.187 39.3631 196.426 42.5021L200.414 42.1992L204.403 41.8963C204.172 38.8634 204.062 36.428 204.062 34.5625H200.062ZM200.414 42.1992L199.953 38.2259L190.363 39.3392L190.824 43.3125L191.285 47.2858L200.875 46.1725L200.414 42.1992ZM190.824 43.3125L194.788 42.772C194.635 41.6537 194.495 40.5423 194.368 39.4378L190.395 39.8945L186.421 40.3513C186.554 41.5124 186.701 42.6797 186.861 43.853L190.824 43.3125ZM190.395 39.8945L194.368 39.4378C194.242 38.3418 194.143 37.3387 194.069 36.4267L190.082 36.75L186.095 37.0733C186.177 38.0884 186.286 39.1817 186.421 40.3513L190.395 39.8945ZM190.082 36.75L194.073 36.4839C194.015 35.6074 193.984 34.6488 193.984 33.6055H189.984H185.984C185.984 34.8017 186.019 35.9394 186.091 37.0161L190.082 36.75ZM189.984 33.6055H193.984C193.984 33.2396 194.005 32.6336 194.056 31.7438L190.062 31.5156L186.069 31.2874C186.016 32.2206 185.984 33.0078 185.984 33.6055H189.984ZM190.062 31.5156L194.061 31.3922L193.709 20.0055L189.711 20.1289L185.713 20.2523L186.064 31.6391L190.062 31.5156ZM189.711 20.1289L190.216 24.0969L197.892 23.1204L197.387 19.1523L196.882 15.1843L189.206 16.1609L189.711 20.1289ZM197.387 19.1523L194.359 21.7668L195.473 23.0559L198.5 20.4414L201.527 17.8269L200.414 16.5379L197.387 19.1523Z" fill="#244088" mask="url(#path-1-outside-1_994_2)"/>
</svg>
